<?xml version="1.0" encoding="UTF-8" standalone="no"?><!DOCTYPE svg PUBLIC "-//W3C//DTD SVG 1.1//EN"
    "http://www.w3.org/Graphics/SVG/1.1/DTD/svg11.dtd">
<svg xmlns:xlink="http://www.w3.org/1999/xlink" height="515" preserveAspectRatio="xMidYMid meet"
    version="1.1" viewBox="0 0 640 640" width="515" xmlns="http://www.w3.org/2000/svg">
    <defs>
        <path
            d="M54.01 112.37L81.26 141.48L54.01 168.93L81.26 197.22L54.01 225.5L82.33 253.79L54.01 282.07L81.26 310.36L54.01 338.64L82.33 366.92L54.01 395.21L82.33 423.49L54.01 450.57L54.01 503.35L110.58 504.52L138.86 475.13L167.14 504.52L195.43 476.22L223.71 504.52L252 476.22L280.28 503.35L308.57 476.22L336.85 504.52L365.13 477.57L393.42 504.52L421.74 476.22L450.03 504.73L502.95 504.52L502.95 450.57L474.62 422.29L502.95 394L474.62 366.92L502.95 338.64L474.62 310.36L502.95 282.07L474.62 253.79L502.95 225.5L474.62 195.58L503.87 168.93L474.62 140.65L502.95 112.37L503.87 55.79L446.38 55.79L418.1 84.08L393.42 55.79L365.13 84.08L336.85 55.79L308.57 84.08L280.28 55.79L252 84.08L223.71 55.79L195.43 84.08L167.14 55.79L138.86 84.08L110.58 55.79L54.01 55.79L54.01 112.37Z"
            id="h4z14Z1v1" />
        <path
            d="M134.46 215.58L161.72 244.69L134.46 272.15L161.72 300.43L134.46 328.72L162.79 357L134.46 385.29L161.72 413.57L134.46 441.86L162.79 470.14L134.46 498.42L162.79 526.71L134.46 553.78L134.46 606.56L191.03 607.73L219.32 578.35L247.6 607.73L275.88 579.44L304.17 607.73L332.45 579.44L360.74 606.56L389.02 579.44L417.31 607.73L445.59 580.79L473.87 607.73L502.2 579.44L530.48 607.95L583.4 607.73L583.4 553.78L555.08 525.5L583.4 497.22L555.08 470.14L583.4 441.86L555.08 413.57L583.4 385.29L555.08 357L583.4 328.72L555.08 298.8L584.32 272.15L555.08 243.87L583.4 215.58L584.32 159L526.84 159L498.55 187.3L473.87 159L445.59 187.3L417.31 159L389.02 187.3L360.74 159L332.45 187.3L304.17 159L275.88 187.3L247.6 159L219.32 187.3L191.03 159L134.46 159L134.46 215.58Z"
            id="ctZZSCJ4" />
    </defs>
    <g>
        <g>
            <g>
                <g>
                    <filter filterUnits="userSpaceOnUse" height="467.94" id="shadow7968220"
                        primitiveUnits="userSpaceOnUse" width="468.86" x="45.01" y="46.79">
                        <feComposite in2="SourceAlpha" operator="in" />
                        <feGaussianBlur stdDeviation="1" />
                        <feOffset dx="1" dy="1" result="afterOffset" />
                        <feFlood flood-color="#000000" flood-opacity="0.5" />
                        <feComposite in2="afterOffset" operator="in" />
                        <feMorphology operator="dilate" radius="1" />
                        <feComposite in2="SourceAlpha" operator="out" />
                    </filter>
                    <path
                        d="M54.01 112.37L81.26 141.48L54.01 168.93L81.26 197.22L54.01 225.5L82.33 253.79L54.01 282.07L81.26 310.36L54.01 338.64L82.33 366.92L54.01 395.21L82.33 423.49L54.01 450.57L54.01 503.35L110.58 504.52L138.86 475.13L167.14 504.52L195.43 476.22L223.71 504.52L252 476.22L280.28 503.35L308.57 476.22L336.85 504.52L365.13 477.57L393.42 504.52L421.74 476.22L450.03 504.73L502.95 504.52L502.95 450.57L474.62 422.29L502.95 394L474.62 366.92L502.95 338.64L474.62 310.36L502.95 282.07L474.62 253.79L502.95 225.5L474.62 195.58L503.87 168.93L474.62 140.65L502.95 112.37L503.87 55.79L446.38 55.79L418.1 84.08L393.42 55.79L365.13 84.08L336.85 55.79L308.57 84.08L280.28 55.79L252 84.08L223.71 55.79L195.43 84.08L167.14 55.79L138.86 84.08L110.58 55.79L54.01 55.79L54.01 112.37Z"
                        fill="white" fill-opacity="1" filter="url(#shadow7968220)"
                        id="a48ueGDBLf" />
                </g>
                <use fill="#9ccc65" fill-opacity="1" opacity="1" xlink:href="#h4z14Z1v1" />
                <g>
                    <use fill-opacity="0" opacity="1" stroke="#000000" stroke-opacity="1"
                        stroke-width="1" xlink:href="#h4z14Z1v1" />
                </g>
            </g>
            <g>
                <g>
                    <filter filterUnits="userSpaceOnUse" height="467.94" id="shadow466936"
                        primitiveUnits="userSpaceOnUse" width="468.86" x="125.46" y="150">
                        <feComposite in2="SourceAlpha" operator="in" />
                        <feGaussianBlur stdDeviation="1" />
                        <feOffset dx="1" dy="1" result="afterOffset" />
                        <feFlood flood-color="#000000" flood-opacity="0.5" />
                        <feComposite in2="afterOffset" operator="in" />
                        <feMorphology operator="dilate" radius="1" />
                        <feComposite in2="SourceAlpha" operator="out" />
                    </filter>
                    <path
                        d="M134.46 215.58L161.72 244.69L134.46 272.15L161.72 300.43L134.46 328.72L162.79 357L134.46 385.29L161.72 413.57L134.46 441.86L162.79 470.14L134.46 498.42L162.79 526.71L134.46 553.78L134.46 606.56L191.03 607.73L219.32 578.35L247.6 607.73L275.88 579.44L304.17 607.73L332.45 579.44L360.74 606.56L389.02 579.44L417.31 607.73L445.59 580.79L473.87 607.73L502.2 579.44L530.48 607.95L583.4 607.73L583.4 553.78L555.08 525.5L583.4 497.22L555.08 470.14L583.4 441.86L555.08 413.57L583.4 385.29L555.08 357L583.4 328.72L555.08 298.8L584.32 272.15L555.08 243.87L583.4 215.58L584.32 159L526.84 159L498.55 187.3L473.87 159L445.59 187.3L417.31 159L389.02 187.3L360.74 159L332.45 187.3L304.17 159L275.88 187.3L247.6 159L219.32 187.3L191.03 159L134.46 159L134.46 215.58Z"
                        fill="white" fill-opacity="1" filter="url(#shadow466936)" id="aLovMkIJk" />
                </g>
                <use fill="#00bcd4" fill-opacity="1" opacity="1" xlink:href="#ctZZSCJ4" />
                <g>
                    <use fill-opacity="0" opacity="1" stroke="#000000" stroke-opacity="1"
                        stroke-width="1" xlink:href="#ctZZSCJ4" />
                </g>
            </g>
        </g>
    </g>
</svg>